HIERARCHY
ROOT Hips
{
	OFFSET 0.000000 0.000000 0.000000
	CHANNELS 6 Xposition Yposition Zposition Xrotation Yrotation Zrotation
	JOINT LeftUpLeg_virtual
	{
		OFFSET 0.000000 0.000000 0.000000
		CHANNELS 3 Xrotation Yrotation Zrotation
		JOINT LeftUpLeg
		{
			OFFSET 11.394100 -6.187798 -0.413800
			CHANNELS 3 Xrotation Yrotation Zrotation
			JOINT LeftLeg
			{
				OFFSET 0.430247 -32.302673 3.732800
				CHANNELS 3 Xrotation Yrotation Zrotation
				JOINT LeftFoot
				{
					OFFSET -0.430247 -48.264931 -6.423300
					CHANNELS 3 Xrotation Yrotation Zrotation
					JOINT LeftToeBase
					{
						OFFSET 4.230900 -16.068199 23.438400
						CHANNELS 3 Xrotation Yrotation Zrotation
						JOINT LeftToe_End
						{
							OFFSET 4.510700 0.695400 19.974600
							CHANNELS 3 Xrotation Yrotation Zrotation
							End Site
							{
								OFFSET 0 0 0
							}
						}
					}
				}
			}
		}
	}
	JOINT RightUpLeg_virtual
	{
		OFFSET 0.000000 0.000000 0.000000
		CHANNELS 3 Xrotation Yrotation Zrotation
		JOINT RightUpLeg
		{
			OFFSET -11.333700 -6.187798 -0.413800
			CHANNELS 3 Xrotation Yrotation Zrotation
			JOINT RightLeg
			{
				OFFSET -0.430392 -32.302628 3.733000
				CHANNELS 3 Xrotation Yrotation Zrotation
				JOINT RightFoot
				{
					OFFSET 0.430392 -48.264973 -6.423500
					CHANNELS 3 Xrotation Yrotation Zrotation
					JOINT RightToeBase
					{
						OFFSET -4.230900 -16.068199 23.438400
						CHANNELS 3 Xrotation Yrotation Zrotation
						JOINT RightToe_End
						{
							OFFSET -4.510700 0.695400 19.974600
							CHANNELS 3 Xrotation Yrotation Zrotation
							End Site
							{
								OFFSET 0 0 0
							}
						}
					}
				}
			}
		}
	}
	JOINT Spine_virtual
	{
		OFFSET 0.000000 0.000000 0.000000
		CHANNELS 3 Xrotation Yrotation Zrotation
		JOINT Spine
		{
			OFFSET -0.002400 12.777504 0.315300
			CHANNELS 3 Xrotation Yrotation Zrotation
			JOINT Spine1
			{
				OFFSET -0.002067 5.816869 0.032633
				CHANNELS 3 Xrotation Yrotation Zrotation
				JOINT Spine1_split
				{
					OFFSET -0.002067 5.816869 0.032633
					CHANNELS 3 Xrotation Yrotation Zrotation
					JOINT Spine2
					{
						OFFSET -0.002067 5.816869 0.032633
						CHANNELS 3 Xrotation Yrotation Zrotation
						JOINT Neck_virtual
						{
							OFFSET 0.000000 0.000000 0.000000
							CHANNELS 3 Xrotation Yrotation Zrotation
							JOINT Neck
							{
								OFFSET -0.003700 21.199493 -0.826900
								CHANNELS 3 Xrotation Yrotation Zrotation
								JOINT Head
								{
									OFFSET 0.000000 20.442200 4.834800
									CHANNELS 3 Xrotation Yrotation Zrotation
									JOINT HeadTop_End
									{
										OFFSET 0.000000 34.668396 4.968400
										CHANNELS 3 Xrotation Yrotation Zrotation
										End Site
										{
											OFFSET 0 0 0
										}
									}
								}
							}
						}
						JOINT LeftShoulder_virtual
						{
							OFFSET 0.000000 0.000000 0.000000
							CHANNELS 3 Xrotation Yrotation Zrotation
							JOINT LeftShoulder
							{
								OFFSET 3.288150 8.794197 -1.372250
								CHANNELS 3 Xrotation Yrotation Zrotation
								JOINT LeftShoulder_split
								{
									OFFSET 3.288150 8.794197 -1.372250
									CHANNELS 3 Xrotation Yrotation Zrotation
									JOINT LeftArm
									{
										OFFSET 11.953299 -2.279007 -0.146200
										CHANNELS 3 Xrotation Yrotation Zrotation
										JOINT LeftForeArm
										{
											OFFSET 18.448900 0.000000 0.000000
											CHANNELS 3 Xrotation Yrotation Zrotation
											JOINT LeftHand
											{
												OFFSET 29.527798 0.000000 0.000000
												CHANNELS 3 Xrotation Yrotation Zrotation
												End Site
												{
													OFFSET 0 0 0
												}
											}
										}
									}
								}
							}
						}
						JOINT RightShoulder_virtual
						{
							OFFSET 0.000000 0.000000 0.000000
							CHANNELS 3 Xrotation Yrotation Zrotation
							JOINT RightShoulder
							{
								OFFSET -3.249400 8.794197 -1.372250
								CHANNELS 3 Xrotation Yrotation Zrotation
								JOINT RightShoulder_split
								{
									OFFSET -3.249400 8.794197 -1.372250
									CHANNELS 3 Xrotation Yrotation Zrotation
									JOINT RightArm
									{
										OFFSET -11.953299 -2.279007 -0.146200
										CHANNELS 3 Xrotation Yrotation Zrotation
										JOINT RightForeArm
										{
											OFFSET -18.448900 0.000000 0.000000
											CHANNELS 3 Xrotation Yrotation Zrotation
											JOINT RightHand
											{
												OFFSET -29.527802 0.000000 0.000000
												CHANNELS 3 Xrotation Yrotation Zrotation
												End Site
												{
													OFFSET 0 0 0
												}
											}
										}
									}
								}
							}
						}
					}
				}
			}
		}
	}
}
MOTION
Frames: 6
Frame Time: 0.03333333
-16.098965 14.868073 -79.617508 0.000000 0.000000 0.000000 -87.104815 26.299865 5.605761 -70.388112 5.026907 34.512847 65.723878 13.500420 -1.906826 30.250949 8.656295 -2.391193 0.139567 -0.000010 0.000001 0.000000 0.000000 0.000000 -87.104815 26.299865 5.605761 -72.955744 18.289129 -35.113729 109.054051 -5.159440 5.199165 49.383603 6.321960 19.126792 -0.000014 0.000001 0.000001 0.000000 0.000000 0.000000 -87.104815 26.299865 5.605761 54.128850 10.946294 -3.087796 20.535749 3.211053 0.186204 0.000000 0.000000 0.000000 0.000000 0.000000 0.000000 20.612227 2.862305 0.333966 6.354672 0.273872 -2.216752 32.669211 -1.249313 -2.725200 0.000000 0.000000 0.000000 20.612227 2.862305 0.333966 0.690093 -7.698568 -13.129611 0.000000 0.000000 0.000000 -23.121924 -24.042636 -24.824242 0.000054 -63.058827 0.000065 0.000000 0.000000 0.000000 20.612227 2.862305 0.333966 0.136775 13.961784 14.788458 0.000000 0.000000 0.000000 -26.720451 -13.516584 33.282105 0.000001 41.763055 -0.000014 0.000000 0.000000 0.000000 
-15.741830 14.579117 -82.369370 0.000000 0.000000 0.000000 -96.126689 25.337610 6.625215 -61.670782 4.654570 33.337733 60.979731 11.379348 0.710342 33.747326 8.067808 1.610542 0.305994 0.000023 0.000006 0.000000 0.000000 0.000000 -96.126689 25.337610 6.625215 -62.040459 15.124288 -27.462239 105.640965 -7.041662 0.311491 44.307034 4.968626 21.439172 0.000015 -0.000015 -0.000002 0.000000 0.000000 0.000000 -96.126689 25.337610 6.625215 53.876334 12.607827 -1.317375 21.302516 3.531561 0.486731 0.000000 0.000000 0.000000 0.000000 0.000000 0.000000 21.413452 3.045619 0.639494 5.772045 0.276186 -2.724577 26.591368 -2.420392 -3.858279 0.000000 0.000000 0.000000 21.413452 3.045619 0.639494 0.618659 -7.705187 -13.035384 0.000000 0.000000 0.000000 -16.051276 -24.091785 -18.542282 0.000001 -64.438921 -0.000000 0.000000 0.000000 0.000000 21.413452 3.045619 0.639494 0.368021 14.232611 12.568261 0.000000 0.000000 0.000000 -15.163283 -12.817756 34.004438 -0.000002 41.556899 0.000001 0.000000 0.000000 0.000000 
-15.346648 14.763527 -84.883896 0.000000 0.000000 0.000000 -105.738063 24.692563 7.979161 -52.363679 4.524413 34.455466 57.402843 9.700780 2.991816 34.839446 4.864081 0.643478 0.454300 0.000018 -0.000010 0.000000 0.000000 0.000000 -105.738063 24.692563 7.979161 -49.298492 13.291066 -22.307152 103.000981 -11.432527 -4.277556 39.642551 4.193507 24.280506 -0.000017 0.000011 0.000001 0.000000 0.000000 0.000000 -105.738063 24.692563 7.979161 52.783142 12.691705 0.738789 21.192019 3.289843 0.753230 0.000000 0.000000 0.000000 0.000000 0.000000 0.000000 21.312758 2.716127 0.941970 5.822419 0.265674 -2.893493 26.499329 -3.586465 -3.784528 0.000000 0.000000 0.000000 21.312758 2.716127 0.941970 0.548375 -8.140325 -12.910354 0.000000 0.000000 0.000000 -10.892208 -23.869734 -15.235348 0.000013 -61.758318 0.000030 0.000000 0.000000 0.000000 21.312758 2.716127 0.941970 0.431950 14.333483 11.516015 0.000000 0.000000 0.000000 -2.584127 -5.159834 32.975931 0.000002 35.399522 -0.000001 0.000000 0.000000 0.000000 
-15.260413 15.481583 -87.004974 0.000000 0.000000 0.000000 -114.602679 24.854094 8.996794 -44.977421 3.832964 37.780047 55.498118 8.851669 5.039273 32.114218 1.457822 -2.774802 0.434284 -0.000020 0.000002 0.000000 0.000000 0.000000 -114.602679 24.854094 8.996794 -40.390190 11.750587 -18.467093 101.263510 -12.840844 -7.298267 38.372416 2.813526 21.700110 0.000003 0.000000 0.000005 0.000000 0.000000 0.000000 -114.602679 24.854094 8.996794 49.746317 11.028016 2.449563 19.813021 2.537998 0.647772 0.000000 0.000000 0.000000 0.000000 0.000000 0.000000 19.912481 1.937067 0.895219 6.495170 0.264970 -2.706686 31.372367 -4.092080 -3.476033 0.000000 0.000000 0.000000 19.912481 1.937067 0.895219 0.492898 -8.977882 -12.094597 0.000000 0.000000 0.000000 -7.279195 -22.558966 -16.271210 -0.000004 -57.917702 -0.000010 0.000000 0.000000 0.000000 19.912481 1.937067 0.895219 0.434026 12.961609 11.430406 0.000000 0.000000 0.000000 9.841223 6.566304 32.310138 0.000003 26.820051 -0.000001 0.000000 0.000000 0.000000 
-15.601203 16.573250 -88.899048 0.000000 0.000000 0.000000 -120.907790 25.540512 9.504764 -40.728647 2.747432 42.519908 54.598442 8.625691 6.499688 26.844435 -0.606568 -7.428544 0.068456 -0.000008 -0.000011 0.000000 0.000000 0.000000 -120.907790 25.540512 9.504764 -35.671042 11.257753 -16.038370 101.735524 -12.184251 -8.582833 37.312623 3.720125 17.767031 0.000006 -0.000007 0.000001 0.000000 0.000000 0.000000 -120.907790 25.540512 9.504764 44.804060 7.577055 2.847187 17.311041 1.411744 -0.146462 0.000000 0.000000 0.000000 0.000000 0.000000 0.000000 17.369910 0.817397 0.168534 7.139808 0.269604 -2.399112 34.588457 -3.638912 -4.542990 0.000000 0.000000 0.000000 17.369910 0.817397 0.168534 0.538445 -9.973102 -9.961850 0.000000 0.000000 0.000000 -3.179593 -18.500633 -19.681798 0.000048 -55.463745 0.000057 0.000000 0.000000 0.000000 17.369910 0.817397 0.168534 0.438110 10.094230 11.981952 0.000000 0.000000 0.000000 21.216494 15.450159 31.864779 0.000000 25.231549 0.000000 0.000000 0.000000 0.000000 
-16.251337 17.741844 -90.839539 0.000000 0.000000 0.000000 -123.909713 26.131377 9.913285 -39.147537 2.250129 47.019873 53.434154 8.561698 7.067220 21.901317 -1.707531 -12.463990 -0.621991 0.000009 0.000016 0.000000 0.000000 0.000000 -123.909713 26.131377 9.913285 -36.070116 12.330873 -14.177285 104.336132 -10.235269 -8.843118 36.956873 4.241161 14.667971 0.000015 0.000006 0.000006 0.000000 0.000000 0.000000 -123.909713 26.131377 9.913285 39.427923 2.122586 1.903912 14.118097 -0.180340 -1.277124 0.000000 0.000000 0.000000 0.000000 0.000000 0.000000 14.128675 -0.681852 -0.833144 6.875281 0.288307 -2.238482 31.259344 -1.895434 -7.919911 0.000000 0.000000 0.000000 14.128675 -0.681852 -0.833144 0.729426 -10.066527 -6.844010 0.000000 0.000000 0.000000 3.604214 -12.342446 -23.306103 -0.000026 -54.455893 -0.000024 0.000000 0.000000 0.000000 14.128675 -0.681852 -0.833144 0.480500 7.258790 12.643930 0.000000 0.000000 0.000000 32.452992 15.591063 29.432187 0.000000 37.029929 0.000000 0.000000 0.000000 0.000000 
